<mxfile host="app.diagrams.net" modified="2024-05-08T12:44:42.726Z" agent="Mozilla/5.0 (X11; Linux x86_64) AppleWebKit/537.36 (KHTML, like Gecko) Chrome/123.0.0.0 Safari/537.36" version="24.3.1" etag="5cNsDxGLGoivmsZHHKc2" type="github">
  <diagram name="Page-1" id="KZieKQOtCeVFzyx--3y6">
    <mxGraphModel>
      <root>
        <mxCell id="0" />
        <mxCell id="1" parent="0" />
      </root>
    </mxGraphModel>
  </diagram>
</mxfile>
